<?xml version="1.0" encoding="utf-8"?>
<!DOCTYPE svg PUBLIC "-//W3C//DTD SVG 1.0//EN" "http://www.w3.org/TR/2001/REC-SVG-20010904/DTD/svg10.dtd">
<svg version="1.0" xmlns="http://www.w3.org/2000/svg" width="960px" height="960px" viewBox="0 0 960 960" preserveAspectRatio="xMidYMid meet">
 <g fill="#000000">
  <path d="M431.1 644.4 c-4 -3.4 -4.3 -8.3 -0.6 -11.2 3 -2.4 3.1 -3 0.4 -5.8 -2 -2.1 -2 -2.4 -0.4 -4.7 2.7 -4.1 8.7 -4.9 12.9 -1.6 3.2 2.5 3.3 4.5 0.4 6.9 -2 1.6 -2.1 1.9 -0.7 2.5 0.9 0.3 4.5 0.5 8 0.3 4.8 -0.2 6.4 -0.7 6.5 -1.8 0.1 -0.8 0.2 -5.2 0.3 -9.8 0.1 -7.4 0.3 -8.3 1.9 -8 1.3 0.2 1.8 1.5 2 6.1 0.2 3.1 0.6 5.7 0.9 5.7 0.4 0 1.4 -0.7 2.4 -1.6 1 -0.9 3.8 -1.9 6.1 -2.1 5.6 -0.6 8.8 1.8 9.7 7.3 0.5 3.3 1 3.9 3.4 4.2 2.5 0.3 2.7 0.1 2.7 -3.7 0 -5 2.7 -8.1 7 -8.1 4.6 0 7 3.1 7 9 0 3.8 -0.4 5.2 -1.9 5.9 -1.1 0.6 -14.4 1 -33.6 1 -32.7 -0.1 -33.4 0 -33.5 3.8 0 2.2 3.2 4.3 6.6 4.3 3.6 0 4.2 0.8 2.2 2.8 -2 2 -6.5 1.4 -9.7 -1.4z m45.7 -16 c0.4 -2.7 -2.2 -5.4 -5.3 -5.4 -2.7 0 -8.5 4.5 -8.5 6.6 0 1.2 1.4 1.4 6.8 1.2 6 -0.3 6.7 -0.5 7 -2.4z m19.8 1.1 c0.4 -0.8 0.3 -2.7 0 -4.1 -0.9 -3.3 -4.9 -3 -5.4 0.4 -0.6 4.1 4.1 7.2 5.4 3.7z m-56 -5.4 c-0.8 -1.2 -4.9 -1.5 -5.9 -0.5 -0.3 0.4 0.1 1.7 1 3.1 1.6 2.4 1.6 2.4 3.6 0.5 1.1 -1.1 1.6 -2.5 1.3 -3.1z"/>
  <path d="M735.4 642.4 c0.3 -0.9 0.6 -2.2 0.6 -2.9 0 -1.5 2.7 -2.8 4.2 -1.9 0.5 0.3 0.1 1.2 -0.9 1.9 -1.7 1.3 -1.7 1.4 0 2 2.7 1.1 2 2.5 -1.4 2.5 -2.4 0 -3 -0.3 -2.5 -1.6z"/>
  <path d="M250.7 640.6 c-0.7 -1.8 0.1 -2.6 2.9 -2.6 3.2 0 3.8 -1.4 4.4 -10.5 0.4 -6.6 0.8 -8 2.3 -8.3 1.5 -0.3 1.7 0.6 1.7 8.8 0 8.3 -0.2 9.3 -2.5 11.5 -2.7 2.8 -7.9 3.4 -8.8 1.1z"/>
  <path d="M356.7 641.3 c-1.4 -1.3 -0.6 -2.2 2.3 -2.8 3.5 -0.8 3.9 -1.9 4.2 -12 0.3 -6.2 0.5 -7 2.3 -7 1.8 0 2 0.8 2.3 7 0.4 8.4 -0.2 10.8 -3 13.5 -2.1 1.9 -6.8 2.7 -8.1 1.3z"/>
  <path d="M513.5 641 c-0.9 -1.5 0.3 -3 2.4 -3 1 0 2.4 -0.7 3.1 -1.5 1 -1.2 0.9 -1.5 -0.8 -1.5 -3.4 0 -5.2 -1.1 -6.7 -4.1 -2.1 -4 -1.9 -6.6 1 -9.4 5.3 -5.4 12.5 -1.5 12.5 6.9 0 6.5 -1.7 11.1 -4.6 12.4 -3.1 1.5 -6.1 1.5 -6.9 0.2z m6.3 -13.7 c-0.2 -3 -0.7 -3.8 -2.3 -3.8 -1.3 0 -2.1 0.8 -2.3 2.3 -0.5 3.4 0.5 5.2 2.8 5.2 1.8 0 2.1 -0.5 1.8 -3.7z"/>
  <path d="M567.7 641.3 c-1.4 -1.3 -0.6 -2.1 2.7 -2.7 3.4 -0.7 5.9 -3.6 3 -3.6 -0.8 0 -2.8 -0.7 -4.4 -1.5 -5.7 -3 -4.7 -12.5 1.5 -14.1 5.7 -1.4 9.5 2 9.5 8.6 l0 3 8.5 0 8.4 0 0.3 -5.7 c0.3 -5 0.6 -5.8 2.3 -5.8 1.8 0 2 0.8 2.3 6.1 0.4 8.7 -0.5 9.4 -12.3 9.4 -8.8 0 -9.5 0.2 -10.6 2.3 -0.7 1.2 -1.9 2.7 -2.8 3.4 -1.7 1.3 -7.3 1.7 -8.4 0.6z m7.1 -14 c-0.2 -3 -0.7 -3.8 -2.3 -3.8 -2.4 0 -3.3 3.8 -1.5 6.1 2.4 2.8 4.1 1.7 3.8 -2.3z"/>
  <path d="M603.7 640.6 c-0.4 -1 0.4 -1.7 2.4 -2.1 4 -0.9 4.9 -3.1 4.9 -11.9 0 -6.9 0.2 -7.6 2 -7.6 1.6 0 1.9 0.8 2.2 5.8 0.3 5.6 0.3 5.7 3.6 6 l3.2 0.3 0 -10 c0 -9.4 0.1 -10.1 2 -10.1 1.9 0 2 0.7 2 10.8 0 7.1 -0.4 11.2 -1.2 12 -0.7 0.7 -3.1 1.2 -5.5 1.2 -2.4 0 -4.3 0.5 -4.3 1 0 0.6 -1.1 2.2 -2.5 3.5 -2.7 2.8 -7.9 3.4 -8.8 1.1z"/>
  <path d="M665.7 640.6 c-0.4 -1 0.3 -1.7 2.3 -2.1 4 -0.9 4.4 -1.8 5 -11 0.4 -6.5 0.8 -8 2.2 -8.3 1.4 -0.3 1.7 0.6 2 5.5 0.3 5.7 0.3 5.8 3.3 5.8 2.9 0 3 -0.2 3.5 -5.5 0.4 -4.1 0.9 -5.6 2.2 -5.8 1.4 -0.3 1.7 0.6 2 5.5 l0.3 5.8 4.8 0.3 4.7 0.3 0 -4 c0 -3.4 0.3 -4.1 2 -4.1 1.9 0 2.1 0.5 2.4 5.5 0.1 1.5 0.8 2 3.1 2 2.9 0 3 -0.2 3.3 -4.7 0.3 -3.9 0.7 -4.8 2.2 -4.8 1.5 0 1.9 0.9 2.2 4.8 0.3 4.5 0.4 4.7 3.3 4.7 3 0 3 -0.1 3.3 -5.8 0.3 -4.9 0.6 -5.8 2 -5.5 1.3 0.3 1.8 1.6 2 6.4 0.4 9.3 1.1 9.1 -24.4 9.1 -17.3 0 -21.9 0.3 -22.3 1.4 -1.5 4.6 -10.1 8 -11.4 4.5z"/>
  <path d="M272.4 639.9 c-1.1 -1.8 0.8 -2.9 4.9 -2.6 3 0.1 4.2 0.6 4.2 1.7 0 1.1 -1.2 1.5 -4.2 1.7 -2.4 0 -4.5 -0.3 -4.9 -0.8z"/>
  <path d="M390 639.9 c0 -0.5 -0.1 -1.2 -0.2 -1.6 -0.2 -0.5 1.6 -0.9 4 -1 3.4 -0.1 4.2 0.2 4.2 1.7 0 1.4 -0.8 1.7 -4 1.7 -2.2 0 -4 -0.4 -4 -0.8z"/>
  <path d="M592.5 640.2 c-1.7 -1.8 -0.1 -3 4 -3 3.6 0 4.5 0.3 4.5 1.7 0 1.5 -0.8 1.8 -4 1.8 -2.2 0 -4.2 -0.2 -4.5 -0.5z"/>
  <path d="M217.6 632.9 c-2 -1.6 -2.6 -2.9 -2.6 -6 0 -2.6 0.5 -4.2 1.5 -4.6 2.1 -0.7 2.8 0.1 2.7 3.4 0 4.6 1.3 5.3 10.4 5.3 l8.3 0 0.3 -5.7 c0.3 -5 0.6 -5.8 2.3 -5.8 1.7 0 2 0.8 2.3 5.9 0.5 8.7 -0.7 9.6 -12.8 9.6 -8.3 0 -10.1 -0.3 -12.4 -2.1z"/>
  <path d="M247 623.1 c0 -11.5 0.1 -12.1 2 -12.1 2 0 2.1 0.5 1.8 11.7 -0.3 10.3 -0.5 11.8 -2 12.1 -1.6 0.3 -1.8 -0.8 -1.8 -11.7z"/>
  <path d="M268 633.2 c-1.9 -1.5 -2.1 -2.6 -1.8 -11.7 0.3 -9.2 0.5 -10 2.3 -10 1.8 0 2 0.8 2.3 9.8 l0.3 9.7 2.9 0 c2.8 0 2.9 -0.1 3.2 -5.7 0.3 -5 0.6 -5.8 2.3 -5.8 1.7 0 2 0.8 2.3 5.8 l0.3 5.7 10.4 0 10.5 0 0 -4 c0 -3.3 0.3 -4 1.9 -4 1.6 0 2 0.8 2.3 3.8 0.3 3.4 0.6 3.7 3.3 3.7 2.9 0 3 -0.2 3.3 -4.7 0.3 -3.9 0.7 -4.8 2.2 -4.8 1.5 0 1.9 0.9 2.2 4.8 0.3 4.3 0.5 4.7 3.1 5 2.6 0.3 2.7 0.2 2.7 -4.5 0 -5.6 1.1 -7.8 3.4 -7 1.2 0.5 1.6 2 1.6 6.2 l0 5.6 3.3 -0.3 3.2 -0.3 0.3 -9.7 c0.2 -9 0.4 -9.8 2.2 -9.8 1.9 0 2 0.7 2 11 0 9.4 -0.2 11.1 -1.7 11.8 -1 0.5 -16.8 0.9 -35 1 -29.7 0 -33.5 -0.1 -35.3 -1.6z"/>
  <path d="M344 623.1 c0 -11.5 0.1 -12.1 2 -12.1 2 0 2.1 0.5 1.8 11.7 -0.3 10.3 -0.5 11.8 -2 12.1 -1.6 0.3 -1.8 -0.8 -1.8 -11.7z"/>
  <path d="M373.8 633.9 c-1.5 -0.9 -1.8 -2.6 -1.8 -11.9 0 -10.3 0.1 -11 2 -11 1.8 0 2 0.8 2.2 9.8 l0.3 9.7 8.7 0.3 8.7 0.3 0.3 -5.8 c0.3 -5 0.6 -5.8 2.3 -5.8 1.7 0 2 0.8 2.3 5.8 0.3 5.6 0.4 5.7 3.2 5.7 2.8 0 3 -0.2 3 -4 0 -5.1 2.7 -8 7.4 -8 2 0 3.6 0.6 3.9 1.4 0.8 1.9 -0.1 2.6 -3.4 2.6 -2.3 0 -3 0.6 -3.5 2.7 -0.9 3.3 1.5 5.3 6.3 5.3 3.5 0 4.2 1 2 2.8 -1.7 1.4 -41.5 1.5 -43.9 0.1z"/>
  <path d="M536.6 632.9 c-2.3 -1.8 -2.7 -2.8 -2.4 -6.3 0.2 -3.3 0.7 -4.1 2.3 -4.1 1.6 0 2.1 0.8 2.5 4 l0.5 4 8.7 0.3 8.7 0.3 0.3 -5.8 c0.3 -5 0.6 -5.8 2.3 -5.8 1.7 0 2 0.8 2.3 5.9 0.5 8.7 -0.7 9.6 -12.8 9.6 -8.4 0 -10.1 -0.3 -12.4 -2.1z"/>
  <path d="M630.4 633.7 c-0.2 -0.7 -0.3 -6 -0.2 -11.8 0.3 -9.6 0.4 -10.4 2.3 -10.4 1.8 0 2 0.8 2.3 9.5 0.2 5.2 0 10.5 -0.3 11.8 -0.6 2.4 -3.3 3 -4.1 0.9z"/>
  <path d="M644.7 634.3 c-2 -2 -0.4 -3.3 3.9 -3.3 l4.5 0 -0.3 -3.7 c-0.2 -3 -0.8 -3.8 -2.8 -4.3 -1.4 -0.3 -2.6 -1.4 -2.8 -2.3 -0.5 -2.8 5.4 -2.2 8.3 0.8 3 2.9 3.4 9.4 0.9 11.9 -1.6 1.6 -10.4 2.3 -11.7 0.9z"/>
  <path d="M661.8 629.3 c-0.5 -16.4 -0.4 -17.8 1.7 -17.8 1.9 0 2 0.7 2 11.5 0 10.1 -0.2 11.5 -1.7 11.8 -1.5 0.3 -1.8 -0.5 -2 -5.5z"/>
  <path d="M728.2 633.8 c-2 -2 -1.4 -2.8 2.3 -2.8 1.9 0 3.5 -0.4 3.5 -0.8 0 -0.5 -0.9 -3.5 -2 -6.7 -2.5 -7.2 -2.5 -8.7 -0.2 -8.3 1.1 0.2 2.6 2.8 4.3 7.8 1.5 4.1 3 7.4 3.5 7.3 0.5 -0.2 1 -4.6 1.2 -9.8 0.2 -8.7 0.4 -9.5 2.2 -9.5 1.9 0 2 0.7 2 10.8 0 7.1 -0.4 11.2 -1.2 12 -1.6 1.6 -14 1.6 -15.6 0z"/>
  <path d="M224.4 621.9 c-1 -1.7 0.6 -2.7 4.6 -2.7 3.2 -0.1 4 0.3 4 1.7 0 1.5 -0.8 1.8 -4 1.8 -2.2 0 -4.3 -0.4 -4.6 -0.8z"/>
  <path d="M543.4 621.9 c-1.1 -1.8 0.7 -2.7 4.9 -2.6 2.3 0.1 4.1 0.5 4 1 -0.2 0.4 -0.3 1.1 -0.3 1.6 0 0.4 -1.8 0.8 -4 0.8 -2.2 0 -4.3 -0.4 -4.6 -0.8z"/>
  <path d="M411.1 616.1 c-1.5 -1 -0.8 -4.1 0.9 -4.1 1.5 0 2.5 2.9 1.4 4 -0.5 0.5 -1.5 0.5 -2.3 0.1z"/>
  <path d="M495.6 616.1 c-0.3 -0.5 -1.7 -0.6 -3.1 -0.3 -1.8 0.3 -2.5 0 -2.5 -1.1 0 -2.1 1.9 -3.2 3.3 -1.8 0.7 0.7 1.4 0.7 2.3 0 1.5 -1.2 3.4 -0.4 3.4 1.6 0 1.5 -2.7 2.8 -3.4 1.6z"/>
  <path d="M611.3 615.4 c-0.8 -2.1 1.3 -4.2 2.8 -2.7 1.3 1.3 0.5 4.3 -1.1 4.3 -0.6 0 -1.3 -0.7 -1.7 -1.6z"/>
  <path d="M685.6 616.1 c-0.4 -0.5 -1.3 -0.8 -2.1 -0.4 -2.3 0.8 -5.1 -0.5 -3.7 -1.9 1.6 -1.6 7.3 -1.6 8 0 0.6 1.7 -1.3 3.8 -2.2 2.3z"/>
  <path d="M460.5 582.1 c-1.9 -0.8 -1.9 -1.7 -1.7 -20.7 0.4 -33.6 1.8 -40.8 9.3 -48.9 7.9 -8.6 20.8 -11.8 44.4 -11.3 l13 0.3 0.3 4.5 c0.2 2.5 0.1 6.8 -0.3 9.7 l-0.6 5.1 -13.4 0.4 c-11.6 0.3 -13.7 0.6 -16.2 2.4 -5.6 4.1 -6.1 6.6 -6.9 33.7 l-0.7 24.7 -11.3 0 c-6.2 0 -11.8 0.2 -12.6 0.4 -0.7 0.3 -2.2 0.1 -3.3 -0.3z"/>
  <path d="M533.7 582.3 c-0.9 -0.8 -0.9 -26.8 0 -40.6 l0.6 -10.7 14.5 0 14.5 0 -0.7 25.2 c-0.5 13.9 -1 25.6 -1.2 26 -0.6 1 -26.8 1.1 -27.7 0.1z"/>
  <path d="M572.4 582 c-2 -0.8 -2.1 -1.4 -1.7 -7.2 0.2 -3.5 0.7 -21 1.2 -39.1 0.5 -21 1.1 -33.1 1.8 -33.8 0.7 -0.7 10.9 -0.9 32.4 -0.7 25.9 0.4 32.3 0.7 36.6 2.1 7.8 2.6 14.4 7.5 17.9 13.4 5.1 8.5 5.8 14.2 5 40.6 -0.4 12.7 -1.1 23.5 -1.4 23.9 -0.6 0.6 -17.9 1.1 -26.5 0.9 -1.8 -0.1 -1.9 -1.4 -1.5 -26.3 0.4 -34.5 1.1 -33.3 -21.1 -33.3 l-13.6 0 -0.8 29.5 c-0.5 16.2 -1 29.6 -1 29.6 -1 0.7 -25.7 1.1 -27.3 0.4z"/>
  <path d="M180.7 581.3 c-0.4 -0.6 0.9 -57.2 1.3 -59 0 -0.2 6.5 -0.3 14.4 -0.3 l14.3 0 0.5 -9.6 c0.3 -5.2 1 -10 1.5 -10.5 0.7 -0.7 18.1 -0.9 49.4 -0.7 47.4 0.4 48.5 0.4 55.3 2.7 5.6 1.9 8 3.4 12.7 8 8.3 8.3 9 11.3 9 37.6 -0.1 11.6 -0.4 23.6 -0.7 26.8 l-0.7 5.7 -14.3 0 -14.2 0 0.5 -26.2 c0.5 -25.9 0.5 -26.3 -1.6 -29 -1.2 -1.5 -3.9 -3.2 -5.9 -3.8 -4.2 -1.1 -25.9 -1.4 -26.5 -0.2 -0.3 0.4 -0.8 9.3 -1.1 19.7 -0.4 10.5 -0.9 23.6 -1.2 29.3 l-0.6 10.3 -13.6 -0.3 -13.7 -0.3 0.5 -22.5 c0.2 -12.4 0.5 -25.6 0.5 -29.5 l0 -7 -17.5 0 -17.5 0 -0.6 19.5 c-0.4 10.7 -0.7 24.1 -0.8 29.8 l-0.1 10.2 -14.4 0 c-8 0 -14.7 -0.3 -14.9 -0.7z"/>
  <path d="M359 579.8 c-7.7 -3.9 -11 -11 -11 -23.3 0 -9.3 3.1 -16.2 9.1 -20.2 l4.2 -2.8 29.6 -0.5 c27.6 -0.5 29.6 -0.6 29.9 -2.3 0.6 -2.9 -1.7 -7.3 -4.4 -8.6 -1.7 -0.7 -13 -1.1 -35 -1.1 l-32.5 0 0.3 -9.7 0.3 -9.8 31.5 -0.3 c33.4 -0.3 43.7 0.5 51.8 3.9 8.1 3.5 13.3 9.8 15.8 19.2 1.4 5.4 2 46.3 0.8 54 l-0.7 3.7 -42.6 0 c-42.3 0 -42.7 0 -47.1 -2.2z m63.4 -19.4 c0.3 -0.9 0.6 -3.8 0.6 -6.5 l0 -4.9 -21.8 0 c-25.3 0 -26.2 0.3 -26.2 7.4 0 2.3 0.3 4.6 0.7 4.9 0.3 0.4 10.9 0.7 23.4 0.7 19.8 0 22.8 -0.2 23.3 -1.6z"/>
  <path d="M698 580.4 c-5.9 -1.6 -12.5 -5.1 -15.2 -8.1 -0.9 -1 -3 -4.5 -4.5 -7.8 -2.7 -5.8 -2.8 -6.6 -2.8 -21.5 0.1 -13.9 0.3 -16.1 2.4 -21.4 1.3 -3.3 4.1 -7.8 6.3 -10.2 8.3 -9 17.5 -10.8 52.9 -10.2 16.4 0.3 25.4 0.8 27.4 1.7 5.5 2.2 10.1 6.1 12.6 10.4 5 8.8 2.2 25.5 -5.3 30.8 -6.1 4.4 -10.4 4.9 -40.5 4.9 -22 0 -28.3 0.3 -28.3 1.3 0 2.8 2.2 8.6 3.7 9.8 1.3 1.1 9.2 1.5 36.7 1.9 l35.1 0.5 0.3 4.5 c0.2 2.5 0.1 6.9 -0.3 9.8 l-0.6 5.2 -37.2 -0.1 c-29.4 0 -38.3 -0.3 -42.7 -1.5z m52.6 -50.8 c1.8 -2.6 1.8 -8 0 -9.6 -1.1 -0.8 -6.6 -1.1 -19.8 -0.8 -20.1 0.3 -22.3 0.9 -25.4 6.9 -3.1 6.2 -3.7 6 21.2 5.7 21 -0.3 22.7 -0.4 24 -2.2z"/>
  <path d="M534.7 521.3 c-0.9 -0.8 -0.9 -13 -0.1 -17.2 l0.7 -3.2 14.1 0.3 14.1 0.3 0.3 7 c0.2 3.9 0 8.5 -0.3 10.3 l-0.6 3.2 -13.8 0 c-7.6 0 -14.1 -0.3 -14.4 -0.7z"/>
  <path d="M370 471.3 c0 -1.7 10.8 -15 18 -22.1 19.3 -19.4 42 -31.9 68.3 -37.9 14.3 -3.2 36.9 -3.6 51.7 -0.8 10.4 1.9 26.5 7.2 34.4 11.2 14.8 7.5 32.2 20.5 42.3 31.7 5.5 6.1 13.3 16.5 13.3 17.7 0 0.5 -9.3 0.9 -20.9 0.9 l-20.9 0 -0.7 -7.7 c-0.8 -8.2 -2 -10.2 -10 -16.1 l-3 -2.1 4.8 -0.1 c4.2 0 4.9 -0.3 5.7 -2.6 1.3 -3.3 1.4 -3 -2.1 -4.3 -5 -1.7 -8.7 -1.4 -9.9 0.9 -0.7 1.3 -2.1 2 -3.8 2 -2.2 0 -3.5 -1.2 -6.7 -6.1 -5.5 -8.1 -9.5 -11.9 -14.1 -12.9 -10.1 -2.3 -30 -3.2 -43.9 -2.1 -19.4 1.6 -20.2 1.9 -26.2 9.3 -2.7 3.5 -5.8 7.5 -6.8 9.1 -2.2 3.4 -7.4 3.9 -8.2 0.7 -0.4 -1.5 -1.3 -2 -3.7 -1.9 -6.2 0.2 -8.1 1.3 -8.1 4.4 0 2.9 0.2 3 4.8 3.3 2.6 0.2 4.7 0.6 4.7 1 0 0.4 -1.9 1.8 -4.1 3.2 -5.5 3.4 -7.9 7.6 -7.9 13.8 0 8.8 1.7 8.2 -24.1 8.2 -12.6 0 -22.9 -0.3 -22.9 -0.7z"/>
  <path d="M418 466.5 c0 -5.8 0.4 -6.3 2.9 -4.1 1.7 1.4 20.1 6.9 20.8 6.2 0.3 -0.2 -1.6 -3.5 -4.1 -7.1 -2.5 -3.7 -4.6 -7.2 -4.6 -7.9 0 -0.6 2.7 1.9 5.9 5.5 3.3 3.6 7.5 7.6 9.5 9 2 1.3 3.6 2.7 3.6 3.2 0 0.4 -7.6 0.7 -17 0.7 l-17 0 0 -5.5z"/>
  <path d="M529.7 462.5 c5.3 -5.2 9.8 -9.5 10 -9.5 0.7 0 -2.1 4.7 -5.9 9.8 -2.2 3 -3.8 5.6 -3.5 5.8 0.8 0.9 21 -5.5 21.8 -6.8 1.3 -2.1 2.3 0 2.3 5 l0.1 4.7 -17.3 0.3 -17.3 0.2 9.8 -9.5z"/>
  <path d="M291 468.6 c-2 -2.5 2.2 -61 5.5 -76.2 1 -4.6 36.5 -18.4 66 -25.8 36.5 -9.1 71.9 -13.1 115.5 -13 34.4 0 55.1 1.7 85.5 6.9 32.4 5.6 60.9 14.2 86 25.9 l9.1 4.3 2.2 7.4 c1.2 4.1 2.8 11.7 3.6 16.9 2 12.4 5.1 51.2 4.3 53.3 -0.5 1.5 -2.4 1.7 -12.2 1.7 l-11.5 0 -1.4 -3.2 c-4.5 -9.9 -15.6 -28.4 -17.7 -29.5 -1.5 -0.8 -7 -1.3 -14.9 -1.3 -6.9 0 -12.9 -0.4 -13.5 -0.8 -0.5 -0.4 -3.1 -3 -5.7 -5.9 l-4.8 -5.2 0 -13.8 c0 -7.6 -0.4 -14.3 -0.8 -14.9 -1 -1.6 -27.5 -17.4 -29 -17.4 -0.7 0 -6.8 3.1 -13.5 6.9 l-12.2 6.9 -6.2 -1.7 c-3.5 -0.9 -6.8 -2.2 -7.5 -2.9 -0.7 -0.7 -4.5 -6.6 -8.4 -13 l-7 -11.7 -17.2 -0.3 -17.1 -0.2 -7.2 12.2 c-4 6.8 -7.5 12.6 -7.9 13.1 -0.3 0.4 -3.7 1.6 -7.3 2.7 l-6.7 1.9 -12.3 -7 c-6.7 -3.8 -12.8 -6.9 -13.6 -6.9 -1.5 0 -28.2 15.8 -29.3 17.4 -0.4 0.6 -0.8 7.5 -0.8 15.4 l0 14.3 -5.1 5.5 -5.2 5.4 -11.1 0.1 c-19.2 0.1 -17.5 -1 -27.2 16.4 -4.6 8.3 -8.4 15.6 -8.4 16.3 0 1.9 -33.3 1.7 -35 -0.2z"/>
  <path d="M215 464.9 c-30 -0.7 -30.5 -0.8 -29.9 -1.3 0.4 -0.4 21.3 -4.3 54.4 -10.1 l21 -3.7 0 -37.7 c0 -20.7 0.4 -39.3 0.8 -41.3 0.9 -4.3 4.9 -7.1 22.7 -16.3 34.9 -17.8 77.2 -29.9 128 -36.5 22.4 -2.9 41.3 -4 67.8 -4 75.8 0 144.9 14.3 196.2 40.5 17.8 9.2 21.8 12 22.7 16.3 0.4 2 0.8 20.6 0.8 41.3 l0 37.7 21 3.7 c11.6 2 27.3 4.8 35 6.1 21 3.7 21.6 3.9 10.5 4.7 -5.2 0.4 -27 1 -48.3 1.3 l-38.9 0.7 0.6 -5.4 c2.3 -19.8 3.3 -57.8 1.9 -74.7 l-0.6 -8.3 -8.1 -4.4 c-28.4 -15.4 -65.4 -27 -107.6 -33.9 -18.8 -3 -24.6 -3.7 -44.9 -5.1 -72.5 -5.2 -144.6 3.6 -199.6 24.2 -14.9 5.6 -40.1 17.9 -40.9 19.9 -2.1 5.5 -1.3 68.4 1.1 83.7 l0.6 3.7 -19.9 -0.2 c-11 -0.1 -31.8 -0.5 -46.4 -0.9z"/>
  <path d="M441.6 442.2 c-0.8 -1.3 9.6 -14.5 12.4 -15.8 4.2 -2 27.5 -3.7 40.7 -3 15.8 0.9 23.1 2.1 25.6 4.3 2.6 2.3 10.7 13.2 10.7 14.4 0 1.1 -88.7 1.2 -89.4 0.1z"/>
 </g>
</svg>